<svg id="accept-clock" xmlns="http://www.w3.org/2000/svg" width="23.998" height="23.999" viewBox="0 0 23.998 23.999">
  <path id="Path_63" data-name="Path 63" d="M168.463,190.2a.6.6,0,0,0,.423.174.608.608,0,0,0,.423-.174l4.407-4.407a.6.6,0,0,0-.846-.846l-3.988,3.988-1.384-1.384a.6.6,0,1,0-.846.846Z" transform="translate(-158.186 -175.575)" fill="#707070"/>
  <path id="Path_64" data-name="Path 64" d="M102.367,39.764a.635.635,0,0,0,.334-.1.6.6,0,1,0-.832-.169.594.594,0,0,0,.5.269Z" transform="translate(-96.701 -36.647)" fill="#707070"/>
  <path id="Path_65" data-name="Path 65" d="M67.674,68.271a.6.6,0,1,0-.423-.174A.6.6,0,0,0,67.674,68.271Z" transform="translate(-63.735 -63.735)" fill="#707070"/>
  <path id="Path_66" data-name="Path 66" d="M141.9,18.6a.624.624,0,0,0,.229-.045.6.6,0,1,0-.229.045Z" transform="translate(-134.267 -16.536)" fill="#707070"/>
  <path id="Path_67" data-name="Path 67" d="M38.833,102.86a.582.582,0,0,0,.334.1.6.6,0,0,0,.5-.264.637.637,0,1,0-.831.164Z" transform="translate(-36.647 -96.701)" fill="#707070"/>
  <path id="Path_68" data-name="Path 68" d="M17.771,142.413a.625.625,0,0,0,.229.045.6.6,0,1,0-.229-.045Z" transform="translate(-16.536 -134.227)" fill="#707070"/>
  <path id="Path_69" data-name="Path 69" d="M184.763,5.656a.889.889,0,0,0,.115-.01.6.6,0,1,0-.7-.468.606.606,0,0,0,.585.478Z" transform="translate(-174.994 -4.242)" fill="#707070"/>
  <path id="Path_70" data-name="Path 70" d="M4.844,185.451a.974.974,0,0,0,.115.01.638.638,0,1,0-.582-.717h0a.6.6,0,0,0,.467.707Z" transform="translate(-4.147 -175.089)" fill="#707070"/>
  <path id="Path_71" data-name="Path 71" d="M20.484,3.515A11.92,11.92,0,0,0,12,0a.6.6,0,1,0,0,1.2A10.8,10.8,0,1,1,1.2,12,.6.6,0,1,0,0,12,12,12,0,1,0,20.484,3.516Z" transform="translate(0 0)" fill="#707070"/>
</svg>
